<svg width="390" height="607" viewBox="0 0 390 607" fill="none" xmlns="http://www.w3.org/2000/svg">
<path fill-rule="evenodd" clip-rule="evenodd" d="M0 0H390V582H374H334.5C331.226 582 327.762 586.763 323.858 592.131C318.818 599.061 313.044 607 306 607C300.136 607 295.613 602.739 290.904 598.303C285.576 593.284 280.012 588.042 272 588.5C268.713 588.688 266.305 589.858 263.915 591.019C261.418 592.233 258.94 593.437 255.5 593.5C249.7 593.607 245.208 590.247 241.043 587.132C237.493 584.477 234.181 582 230.5 582H190H150.38V582.004H141.129C130.265 582.004 122.27 586.201 114.226 590.423C106.081 594.698 97.8851 599 86.6079 599C76.0263 599 69.5319 595.212 62.6748 591.213C55.0067 586.741 46.8849 582.004 32.0865 582.004H23.677L23.6771 582H0V0Z" fill="#FFBC0D"/>
</svg>
